<svg width="29" height="30" viewBox="0 0 29 30" fill="none" xmlns="http://www.w3.org/2000/svg">
<path d="M28.5973 15.3732L28.5973 15.317C28.5692 7.3605 22.1602 0.867187 14.3162 0.867187C6.47223 0.867187 0.0351564 7.3605 0.0351565 15.3732C0.0351566 23.3869 6.44311 29.8672 14.3162 29.8672C17.9289 29.8696 21.4035 28.4791 24.017 25.9848C24.2745 25.7497 24.4279 25.4219 24.4436 25.0736C24.4594 24.7252 24.3361 24.3849 24.1009 24.1275C23.8657 23.8701 23.5379 23.7167 23.1896 23.7009C22.8413 23.6852 22.501 23.8085 22.2436 24.0437L22.2155 24.0718C21.0878 25.1438 19.7551 25.9769 18.2975 26.5211C16.8398 27.0652 15.2872 27.3092 13.7329 27.2384C12.1786 27.1676 10.6546 26.7835 9.25251 26.109C7.85037 25.4346 6.59898 24.4837 5.57345 23.3136L11.6741 13.5305L11.6741 18.0575C11.6741 20.2206 12.5177 20.9246 13.2266 21.1214C13.9356 21.3182 14.9991 21.1756 16.1509 19.3489L19.498 13.9141C19.5874 13.7554 19.6908 13.6048 19.8053 13.4632L19.8053 16.2198C19.8053 18.2433 20.6208 19.8741 22.0257 20.6604C22.6742 21.0136 23.4063 21.1844 24.1441 21.1549C24.882 21.1254 25.598 20.8966 26.2163 20.4927C27.8391 19.4393 28.7108 17.5946 28.5973 15.3732ZM24.8857 18.2202C24.6603 18.3754 24.3976 18.4676 24.1246 18.4872C23.8516 18.5068 23.5784 18.4531 23.3332 18.3317C22.7708 17.9952 22.4324 17.2371 22.4324 16.1967L22.4324 13.0103C22.4324 11.4939 21.8419 10.3963 20.8306 10.1171C19.1144 9.59892 17.823 11.7188 17.344 12.5061L14.3162 17.3686L14.3162 11.3814C14.2881 10.0046 13.8372 9.1892 12.9937 8.93513C12.4313 8.76742 11.5878 8.85278 10.7733 10.09L3.99783 20.9406C3.09646 19.2231 2.62409 17.3129 2.62103 15.3732C2.62103 8.82265 7.87714 3.5093 14.3162 3.5093C20.7553 3.5093 26.0114 8.82265 26.0114 15.3732L26.0114 15.4304C26.0787 16.6938 25.673 17.708 24.8867 18.2121L24.8857 18.2202Z" fill="black"/>
</svg>
