<svg width="46" height="46" viewBox="0 0 46 46" fill="none" xmlns="http://www.w3.org/2000/svg">
<g clip-path="url(#clip0_2379_5481)">
<g clip-path="url(#clip1_2379_5481)">
<path fill-rule="evenodd" clip-rule="evenodd" d="M36.3047 4.90973C38.207 3.97215 40.2464 5.85507 39.9105 8.23896L35.9431 36.3962C35.5604 39.1111 33.0131 40.6689 30.8851 39.316C29.1046 38.1839 26.4628 36.4415 24.0818 34.6203C22.8929 33.711 19.2525 30.7952 19.6999 28.7195C20.0826 26.9447 26.2025 20.2765 29.6998 16.3107C31.0735 14.753 30.4478 13.8531 28.8255 15.2873C24.8008 18.8453 18.3394 24.2548 16.2026 25.7772C14.3174 27.1203 13.333 27.3495 12.1589 27.1203C10.0149 26.7022 8.02712 26.0546 6.40425 25.2671C4.21084 24.2028 4.31768 20.6745 6.40277 19.647L36.3047 4.90973Z" fill="#4A4010"/>
</g>
</g>
<defs>
<clipPath id="clip0_2379_5481">
<rect width="35.1483" height="35.1483" fill="white" transform="translate(4.79883 4.66406)"/>
</clipPath>
<clipPath id="clip1_2379_5481">
<rect width="35.1483" height="35.1483" fill="white" transform="translate(4.79883 4.66406)"/>
</clipPath>
</defs>
</svg>
